<?xml version="1.0" encoding="UTF-8" standalone="no"?>
<svg
   xmlns:dc="http://purl.org/dc/elements/1.1/"
   xmlns:cc="http://creativecommons.org/ns#"
   xmlns:rdf="http://www.w3.org/1999/02/22-rdf-syntax-ns#"
   xmlns:svg="http://www.w3.org/2000/svg"
   xmlns="http://www.w3.org/2000/svg"
   xmlns:sodipodi="http://sodipodi.sourceforge.net/DTD/sodipodi-0.dtd"
   xmlns:inkscape="http://www.inkscape.org/namespaces/inkscape"
   sodipodi:docname="OWNDESIGNLOGO.svg"
   inkscape:version="1.0 (4035a4fb49, 2020-05-01)"
   id="svg1577"
   version="1.1"
   viewBox="0 0 210 297"
   height="297mm"
   width="210mm">
  <defs
     id="defs1571" />
  <sodipodi:namedview
     inkscape:window-maximized="0"
     inkscape:window-y="0"
     inkscape:window-x="38"
     inkscape:window-height="1020"
     inkscape:window-width="1624"
     showgrid="false"
     inkscape:document-rotation="0"
     inkscape:current-layer="layer1"
     inkscape:document-units="mm"
     inkscape:cy="563.57143"
     inkscape:cx="450.17856"
     inkscape:zoom="0.7"
     inkscape:pageshadow="2"
     inkscape:pageopacity="0.0"
     borderopacity="1.0"
     bordercolor="#666666"
     pagecolor="#ffffff"
     id="base" />
  <metadata
     id="metadata1574">
    <rdf:RDF>
      <cc:Work
         rdf:about="">
        <dc:format>image/svg+xml</dc:format>
        <dc:type
           rdf:resource="http://purl.org/dc/dcmitype/StillImage" />
        <dc:title></dc:title>
      </cc:Work>
    </rdf:RDF>
  </metadata>
  <g
     id="layer1"
     inkscape:groupmode="layer"
     inkscape:label="Layer 1">
    <rect
       y="38.89048"
       x="16.175112"
       height="41.318348"
       width="186.49799"
       id="rect2142"
       style="fill:none;stroke:#000000;stroke-width:0.119982;stroke-miterlimit:4;stroke-dasharray:0.239963, 0.119982;stroke-dashoffset:0;stroke-opacity:1;paint-order:markers fill stroke" />
    <text
       transform="scale(1.1463173,0.87235883)"
       id="text2148"
       y="64.398193"
       x="61.662102"
       style="font-size:44.3338px;line-height:0;font-family:sans-serif;stroke-width:0.923614"
       xml:space="preserve"><tspan
         style="font-style:italic;font-variant:normal;font-weight:bold;font-stretch:normal;font-size:11.7575px;line-height:0.45;font-family:monospace;-inkscape-font-specification:'monospace Bold Italic';letter-spacing:-0.0251961px;fill:#ff7f2a;stroke-width:0.923614"
         y="64.398193"
         x="61.662102"
         id="tspan2146"
         sodipodi:role="line">ENDAWENI</tspan><tspan
         y="76.820549"
         x="61.662102"
         id="tspan2154"
         sodipodi:role="line"
         style="font-style:italic;font-variant:normal;font-weight:bold;font-stretch:normal;font-size:11.7575px;line-height:0.45;font-family:monospace;-inkscape-font-specification:'monospace Bold Italic';letter-spacing:-0.0251961px;fill:#ff7f2a;stroke-width:0.923614">RESTUARANT</tspan></text>
    <text
       transform="scale(0.71825912,1.3922552)"
       id="text2158"
       y="43.361191"
       x="76.046288"
       style="font-style:italic;font-variant:normal;font-weight:bold;font-stretch:normal;font-size:3.42897px;line-height:2.45;font-family:sans-serif;-inkscape-font-specification:'sans-serif Bold Italic';letter-spacing:2.30005px;word-spacing:2.61394px;stroke-width:0.174413"
       xml:space="preserve"><tspan
         style="font-style:italic;font-variant:normal;font-weight:bold;font-stretch:normal;font-size:3.42897px;font-family:sans-serif;-inkscape-font-specification:'sans-serif Bold Italic';fill:#008000;stroke-width:0.174413"
         y="43.361191"
         x="76.046288"
         id="tspan2156"
         sodipodi:role="line">TASTE THE BEST KASI HAS TO OFFER</tspan></text>
    <path
       transform="matrix(0.62984096,0,0,0.41390384,-0.89490642,-11.26949)"
       d="m 45.357143,146.27678 c -0.899846,0.40281 -1.041101,-0.68175 -0.515383,-1.15133 0.664645,-0.59368 1.693685,-0.26619 2.143616,0.42247 0.609092,0.93227 0.193119,2.18313 -0.735562,2.72303 -1.128459,0.65603 -2.583794,0.15522 -3.195339,-0.9634 -0.706921,-1.29309 -0.131034,-2.9309 1.150236,-3.60523 1.438247,-0.75695 3.241364,-0.11376 3.972613,1.31203 0.805056,1.56971 0.100536,3.52477 -1.456604,4.30857 -1.690792,0.85108 -3.78713,0.0899 -4.620041,-1.58842 -0.895102,-1.80366 -0.08113,-4.03252 1.710314,-4.91172 1.909819,-0.9373 4.263865,-0.0736 5.186988,1.82421 0.977829,2.01033 0.06715,4.48332 -1.931504,5.44833 -2.106021,1.01686 -4.692538,0.0614 -5.697672,-2.0332 -1.054514,-2.19753 -0.05631,-4.89284 2.130097,-5.93653 2.285358,-1.09094 5.085269,-0.0517 6.166139,2.2228 1.126219,2.36992 0.04748,5.27069 -2.311826,6.38749 -2.451564,1.16046 -5.449812,0.0436 -6.601408,-2.39757 -1.193757,-2.53056 -0.04006,-5.62324 2.480356,-6.8086 2.607168,-1.22617 5.791479,-0.0367 7.009677,2.56048 1.25776,2.68158 0.03365,5.95497 -2.638192,7.20514 -2.753976,1.28859 -6.1141,0.0307 -7.395427,-2.71369 -1.318715,-2.82451 -0.02802,-6.26919 2.787139,-7.58094 2.893332,-1.34817 6.420541,-0.0254 7.762019,2.85872 1.377014,2.96054 0.02298,6.5684 -2.928544,7.93896 -3.026269,1.40527 -6.713017,0.0207 -8.112053,-2.99675 -1.432971,-3.09059 -0.01843,-6.85458 3.063444,-8.28152 3.153601,-1.46015 6.993278,-0.0163 8.447592,3.12872 1.486844,3.21537 0.01427,7.12928 -3.192664,8.61046 -3.275982,1.51306 -7.262737,0.0123 -8.770297,-3.25536 -1.538849,-3.33549 -0.01044,-7.39378 3.316862,-8.92727 3.39395,-1.56421 7.522553,-0.009 9.08154,3.37725 1.589164,3.45142 0.0069,7.64915 -3.436582,9.23323 -3.50795,1.61373 -7.773694,0.005 -9.382462,-3.49491 -1.637944,-3.56358 -0.0036,-7.89627 3.552276,-9.52936 3.618358,-1.6618 8.016974,-0.002 9.674026,3.60873 1.68532,3.67232 4.52e-4,8.13589 -3.664324,9.81656 -3.725494,1.70852 -8.253087,-0.001 -9.957054,-3.71908 -1.731406,-3.77792 0.0025,-8.36865 3.773049,-10.09559 3.829632,-1.754 8.482633,0.004 10.232255,3.82625 1.776303,3.88065 -0.0053,8.59511 -3.878731,10.36712 -3.931011,1.79833 -8.706129,-0.007 -10.500244,-3.93051 -1.820097,-3.98073 0.0079,-8.81575 3.981611,-10.63171 4.029839,-1.8416 8.924031,0.009 10.761562,4.03207 1.862864,4.07836 -0.01042,9.03101 -4.081902,10.88987 -4.126301,1.88389 -9.136739,-0.0116 -11.016681,-4.13113 -1.904676,-4.1737 0.01283,-9.24126 4.179788,-11.14205 4.220557,-1.92525 9.344607,0.014 11.266025,4.22788 1.94559,4.2669 -0.01513,9.44682 -4.275437,11.38865 -4.312753,1.96573 -9.547951,-0.0162 -11.509967,-4.32247 -1.985664,-4.35812 0.01735,-9.64802 4.368992,-11.63002 4.403019,-2.0054 9.747055,0.0184 11.748845,4.41503 2.024948,4.44746 -0.01948,9.84509 -4.460587,11.86648 -4.49147,2.04431 -9.942171,-0.0205 -11.982961,-4.50569 -2.063485,-4.53505 0.02154,-10.03831 4.550339,-12.09832 4.578213,-2.08249 10.133534,0.0225 12.212591,4.59456 2.101317,4.62097 -0.02352,10.22787 -4.638357,12.3258 -4.663341,2.11998 -10.321348,-0.0245 -12.43798,-4.68174 -2.138481,-4.70533 0.02544,-10.41399 4.724735,-12.54916 4.746944,-2.15683 10.505806,0.0264 12.659358,4.76734 2.175011,4.78819 -0.02731,10.59683 -4.809563,12.7686 -4.829099,2.19305 -10.687082,-0.0282 -12.87693,-4.85142 -2.210939,-4.86965 0.02911,-10.77657 4.892921,-12.98435 4.909879,-2.22868 10.865333,0.03 13.090886,4.93408 2.246293,4.94977 -0.03087,10.95337 -4.974883,13.19656 -4.989351,2.26376 -11.040708,-0.0317 -13.301402,-5.01536 -2.281099,-5.02862 0.03258,-11.12736 5.055518,-13.40542 5.067577,-2.29831 11.213339,0.0334 13.508636,5.09535 2.315384,5.10624 -0.03424,11.29867 -5.134886,13.61107 -5.144613,2.33234 -11.383354,-0.0351 -13.712739,-5.17411 -2.349169,-5.1827 0.03587,-11.46742 5.213047,-13.81366 5.220513,-2.36588 11.550866,0.0367 13.913848,5.25169 2.382475,5.25805 -0.03745,11.63372 -5.290054,14.01332 -1.014846,0.45976 -2.101531,0.75838 -3.208773,0.88202"
       sodipodi:t0="0"
       sodipodi:argument="-110.37663"
       sodipodi:radius="10.643906"
       sodipodi:revolution="17.799999"
       sodipodi:expansion="0.5"
       sodipodi:cy="146.27678"
       sodipodi:cx="45.357143"
       id="path2196"
       style="fill:#ad8729;fill-opacity:1;fill-rule:evenodd;stroke:#000000;stroke-width:0.264583"
       sodipodi:type="spiral" />
    <path
       transform="matrix(0.62984096,0,0,0.41390384,-0.89490642,-11.26949)"
       d="m 74.839287,146.65477 c -1.266946,0.63253 -1.535311,-0.91532 -0.809304,-1.62103 0.917864,-0.8922 2.414419,-0.48453 3.101785,0.4765 0.93052,1.30099 0.4093,3.12124 -0.890726,3.95223 -1.579688,1.00977 -3.698492,0.37918 -4.643813,-1.18909 -1.092753,-1.81286 -0.365473,-4.19807 1.4324,-5.24334 2.018141,-1.17334 4.644654,-0.35948 5.780352,1.64235 1.250327,2.20387 0.357657,5.05216 -1.829478,6.27122 -2.374859,1.3237 -5.429301,0.35832 -6.726179,-1.99978 -1.393712,-2.53418 -0.360548,-5.78199 2.157052,-7.15215 2.683955,-1.46069 6.114428,-0.36381 7.554055,2.30385 1.52494,2.82574 0.367771,6.42974 -2.441988,7.93559 -2.9607,1.58673 -6.730338,0.37221 -8.299566,-2.57284 -1.646321,-3.08974 -0.377003,-7.01809 2.697424,-8.64821 3.213574,-1.7039 7.294519,-0.38203 8.983321,2.81656 1.759658,3.3328 0.387219,7.56086 -2.930916,9.30636 -3.44788,1.81375 -7.818146,0.39252 -9.618536,-3.04101 -1.866305,-3.55923 -0.397907,-8.06723 3.147272,-9.92088 3.667204,-1.91746 8.308875,-0.40334 10.214289,3.25009 1.967293,3.77207 0.408796,8.54368 -3.349771,10.49948 -3.874103,2.01592 -8.772216,0.41427 -10.777136,-3.44658 -2.063421,-3.97351 -0.41973,-8.99495 3.540767,-11.04781 4.07048,-2.10986 9.2123,-0.42518 11.311996,3.63252 2.155318,4.16519 0.430619,9.42464 -3.722016,11.57015 -4.257795,2.19985 -9.632308,0.43603 -11.822672,-3.80942 -2.243493,-4.34842 -0.44141,-9.83559 3.894869,-12.06991 4.437201,-2.28631 10.034762,-0.44675 12.312178,3.97849 2.328357,4.52424 0.452071,10.23006 -4.060394,12.54977 -4.609622,2.36966 -10.421692,0.45735 -12.782945,-4.14068 -2.410257,-4.69345 -0.462586,-10.60987 4.219446,-13.01194 4.775816,-2.45019 10.794767,-0.46778 13.236976,4.29677 2.489481,4.85678 0.472944,10.97655 -4.37273,13.45825 -4.936414,2.52817 -11.155375,0.47806 -13.675937,-4.4474 -2.566274,-5.01478 -0.483143,-11.33138 4.520829,-13.89021 5.091946,-2.60383 11.50469,-0.48818 14.101238,4.59309 2.640844,5.16796 0.493179,11.67543 -4.664237,14.30915 -5.242864,2.67735 -11.843709,0.49813 -14.51408,-4.73432 -2.713374,-5.31671 -0.503055,-12.00963 4.803373,-14.71616 5.389554,-2.74892 12.173292,-0.50793 14.915496,4.87146 2.784022,5.46142 0.512776,12.33478 -4.938594,15.1122 -5.532355,2.81869 -12.494187,0.51758 -15.306388,-5.00483 -2.852927,-5.60239 -0.522344,-12.65159 5.070216,-15.49814 5.67156,-2.88677 12.807044,-0.52707 15.687541,5.13476 2.920211,5.7399 0.531762,12.96064 -5.19851,15.87469 -5.807427,2.95328 -13.112441,0.53642 -16.05965,-5.26149 -2.985983,-5.87418 -0.541037,-13.2625 5.323717,-16.2425 5.940187,-3.01834 13.410885,-0.54563 16.423328,5.38523 3.050342,6.00546 0.550173,13.55764 -5.446048,16.60218 -6.070043,3.08201 -13.702832,0.55469 -16.779125,-5.5062 -3.113373,-6.13394 -0.559175,-13.8465 5.565693,-16.95422 6.197178,-3.14442 13.988689,-0.56363 17.127532,5.62456 3.175155,6.25978 0.568047,14.12945 -5.682822,17.2991 -6.321755,3.2056 -14.26882,0.57244 -17.468991,-5.74049 -3.23576,-6.38313 -0.576793,-14.40684 5.797587,-17.63724 6.443924,-3.26564 14.543557,-0.58112 17.803902,5.85413 3.295253,6.50414 0.585418,14.67899 -5.910126,17.96901 -6.563819,3.3246 -14.8132,0.58969 -18.132627,-5.9656 -3.353692,-6.62295 -0.593927,-14.94619 6.020562,-18.29477 6.681563,-3.38253 15.078023,-0.59814 18.455498,6.07503 3.411132,6.73966 0.602324,15.2087 -6.12901,18.61483 -6.797266,3.43949 -15.338273,0.60648 -18.772816,-6.18252 -3.467621,-6.85439 -0.610611,-15.46676 6.235573,-18.92948 6.911033,-3.49553 15.594182,-0.61472 19.08486,6.28818 3.523206,6.96722 0.618793,15.72057 -6.340347,19.23898 -7.022957,3.55067 -15.84596,0.62285 -19.391882,-6.39209 -3.577929,-7.07826 -0.626874,-15.97036 6.443418,-19.54358 7.133124,-3.60498 16.093798,-0.63088 19.694117,6.49434 3.631828,7.18757 0.634858,16.21629 -6.544866,19.8435 -7.241616,3.65848 -16.337878,0.63882 -19.991784,-6.595 -3.68494,-7.29526 -0.642746,-16.45856 6.644767,-20.13897 7.348505,-3.71121 16.578364,-0.64665 20.285083,6.69416 3.737298,7.40137 0.650542,16.69731 -6.743188,20.43015 -1.428529,0.72122 -2.969905,1.21554 -4.551375,1.46001"
       sodipodi:t0="0"
       sodipodi:argument="-110.41879"
       sodipodi:radius="15.288191"
       sodipodi:revolution="17.799999"
       sodipodi:expansion="0.5"
       sodipodi:cy="146.65477"
       sodipodi:cx="74.839287"
       id="path2198"
       style="fill:#ad8729;fill-opacity:1;fill-rule:evenodd;stroke:#000000;stroke-width:0.264583"
       sodipodi:type="spiral" />
    <path
       transform="matrix(0.62984096,0,0,0.41390384,-0.89490642,-11.26949)"
       d="m 54.050594,185.58632 c -1.374408,1.66135 -2.701761,-0.32857 -2.125656,-1.75853 0.728348,-1.80783 3.063364,-2.16226 4.612587,-1.2476 2.097255,1.23821 2.493,4.0939 1.194814,6.05198 -1.577452,2.37931 -4.91625,2.80672 -7.198795,1.20546 -2.638529,-1.85099 -3.095441,-5.62031 -1.236061,-8.18349 2.087184,-2.87722 6.245846,-3.36225 9.060601,-1.27459 3.098856,2.29836 3.610787,6.81438 1.316468,9.85939 -2.491243,3.30637 -7.33912,3.84408 -10.597818,1.35964 -3.502018,-2.66994 -4.064485,-7.82884 -1.403108,-11.28784 2.837232,-3.68756 8.289725,-4.27385 11.937914,-1.44634 3.864383,2.99508 4.473643,8.72634 1.489058,12.55429 -3.144918,4.03358 -9.142152,4.66504 -13.141714,1.53112 -4.196053,-3.28788 -4.848994,-9.53988 -1.572452,-13.70394 3.424837,-4.35253 9.921687,-5.02631 14.243962,-1.61303 4.503619,3.55649 5.197634,10.28935 1.652831,14.76422 -3.683411,4.64984 -10.644331,5.36354 -15.266732,1.69188 -4.791635,-3.80608 -5.524512,-10.98785 -1.730204,-15.75321 3.924907,-4.92937 11.32097,-5.68095 16.225096,-1.76781 5.06339,4.04023 5.833225,11.64457 1.80473,16.68363 -4.152328,5.19397 -11.959407,5.98165 -17.129885,1.84099 -5.321348,-4.26147 -6.126485,-12.26617 -1.876616,-17.5648 4.367887,-5.44576 12.565462,-6.26799 17.989195,-1.91163 5.567411,4.47176 6.406394,12.85778 1.946074,18.4038 -4.573271,5.68646 -13.14361,6.54188 -18.809268,1.97996 -5.803081,-4.67258 -6.674618,-13.42336 -2.013302,-19.20618 4.769802,-5.9174 13.697386,-6.80478 19.595036,-2.04613 6.029571,4.86508 6.932504,13.96604 2.078479,19.97632 -4.958535,6.13969 -14.229632,7.05793 -20.350475,2.11035 -6.247873,-5.05025 -7.181158,-14.48842 -2.141768,-20.71786 5.140333,-6.35422 14.74268,-7.30232 21.078849,-2.17275 6.458815,5.22886 7.421505,14.99262 2.203313,21.43375 -5.315907,6.56175 -15.238467,7.53881 -21.782874,2.23348 -6.663093,-5.40156 -7.654323,-15.48041 -2.263244,-22.12649 5.48586,-6.76292 15.718628,-7.76812 22.464842,-2.29264 6.8613,5.56889 7.880278,15.95329 2.321675,22.79818 -5.650697,6.95828 -16.184552,7.99086 -23.126704,2.35036 -7.053947,-5.73134 -8.099942,-16.41256 -2.37871,-23.45063 5.810857,-7.14833 16.637435,-8.20758 23.770141,-2.40674 7.241477,5.88931 8.313811,16.85932 2.43444,24.08542 -5.966714,7.33344 -17.078314,8.41871 -24.396609,2.46184 -7.424277,-6.04314 -8.522323,-17.29454 -2.48895,-24.70389 6.1186,-7.51401 17.508096,-8.62469 25.007387,-2.51577 7.602686,6.19315 8.725859,17.71908 2.542313,25.30725 -6.266803,7.69034 -17.927579,8.82587 -25.603597,2.56859 -7.777007,-6.33961 -8.924758,-18.13369 -2.594598,-25.89656 6.41158,-7.86272 18.337469,-9.02256 26.186234,-2.62035 7.947509,6.48275 9.119325,18.53901 2.645866,26.47274 -6.553156,8.0314 -18.738396,9.21507 -26.756186,2.67114 -8.11443,-6.62281 -9.309829,-18.93568 -2.696172,-27.03666 6.691737,-8.19662 19.130924,-9.40363 27.314245,-2.72098 8.277989,6.75996 9.496517,19.3242 2.74557,27.58904 -6.827504,8.35857 -19.515559,9.5885 -27.861128,2.76994 -8.43838,-6.89438 -9.679606,-19.70506 -2.794104,-28.13058 6.960622,-8.51744 19.892758,-9.76986 28.39748,-2.81806 8.59578,7.02623 9.859298,20.0787 2.841819,28.66189 -7.091241,8.67341 -20.262938,9.94793 -28.923887,2.86538 -8.750352,-7.15565 -10.035776,-20.44551 -2.888754,-29.18353 7.219495,-8.82662 20.626475,-10.12286 29.440882,-2.91194 8.90224,7.28278 10.209205,20.80587 2.934945,29.69601 -7.34551,8.97722 -20.983715,10.29482 -29.948953,2.95777 -9.051582,-7.40771 -10.379738,-21.16007 -2.980427,-30.19978 7.469399,-9.12534 21.334975,-10.46397 30.448548,-3.00291 9.1985,7.53057 10.547515,21.50845 3.02523,30.69529 -7.591265,9.27109 -21.680545,10.63041 -30.940075,3.04739 -9.343109,-7.65147 -10.712667,-21.85128 -3.069386,-31.18294 7.711206,-9.41458 22.020694,-10.79429 31.423916,-3.09122 9.485514,7.77048 10.875312,22.18881 3.112918,31.66306 -7.829308,9.55592 -22.355667,10.95573 -31.900417,3.13446 -9.625814,-7.8877 -11.035561,-22.52129 -3.155855,-32.13602 7.945654,-9.6952 22.685695,-11.11482 32.369905,-3.17711 9.764099,8.0032 11.193517,22.84892 3.198219,32.60212 -1.544757,1.88439 -3.38644,3.52238 -5.437897,4.83717"
       sodipodi:t0="0"
       sodipodi:argument="-110.83538"
       sodipodi:radius="23.278547"
       sodipodi:revolution="17.799999"
       sodipodi:expansion="0.5"
       sodipodi:cy="185.58632"
       sodipodi:cx="54.050594"
       id="path2200"
       style="fill:#ad8729;fill-opacity:1;fill-rule:evenodd;stroke:#000000;stroke-width:0.264583"
       sodipodi:type="spiral" />
  </g>
</svg>
